<?xml version="1.0" encoding="UTF-8" standalone="no"?>
<!-- Created with Inkscape (http://www.inkscape.org/) -->

<svg
   width="210mm"
   height="297mm"
   viewBox="0 0 210 297"
   version="1.1"
   id="svg1"
   sodipodi:docname="mopicon.svg"
   inkscape:version="1.4 (e7c3feb100, 2024-10-09)"
   xmlns:inkscape="http://www.inkscape.org/namespaces/inkscape"
   xmlns:sodipodi="http://sodipodi.sourceforge.net/DTD/sodipodi-0.dtd"
   xmlns="http://www.w3.org/2000/svg"
   xmlns:svg="http://www.w3.org/2000/svg">
  <sodipodi:namedview
     id="namedview1"
     pagecolor="#000000"
     bordercolor="#000000"
     borderopacity="0.25"
     inkscape:showpageshadow="2"
     inkscape:pageopacity="0.0"
     inkscape:pagecheckerboard="0"
     inkscape:deskcolor="#d1d1d1"
     inkscape:document-units="mm"
     inkscape:zoom="0.95468511"
     inkscape:cx="449.88656"
     inkscape:cy="394.37087"
     inkscape:window-width="1920"
     inkscape:window-height="1008"
     inkscape:window-x="0"
     inkscape:window-y="0"
     inkscape:window-maximized="1"
     inkscape:current-layer="layer1" />
  <defs
     id="defs1">
    <rect
       x="229.39501"
       y="393.84714"
       width="199.0185"
       height="120.45857"
       id="rect28" />
    <rect
       x="185.40145"
       y="392.79968"
       width="268.15124"
       height="112.07884"
       id="rect27" />
    <linearGradient
       id="swatch2"
       inkscape:swatch="solid">
      <stop
         style="stop-color:#000000;stop-opacity:1;"
         offset="0"
         id="stop2" />
    </linearGradient>
    <linearGradient
       id="swatch1"
       inkscape:swatch="solid">
      <stop
         style="stop-color:#000000;stop-opacity:1;"
         offset="0"
         id="stop1" />
    </linearGradient>
  </defs>
  <g
     inkscape:label="Ebene 1"
     inkscape:groupmode="layer"
     id="layer1"
     style="display:inline">
    <path
       id="path18"
       style="display:inline;fill:none;stroke:#ffffff;stroke-width:3.048;stroke-dasharray:none"
       d="M 46.665496,77.968652 A 62.746784,61.315289 0 0 1 91.098994,59.946384 62.746784,61.315289 0 0 1 135.83885,78.270983"
       inkscape:export-filename="path18.svg"
       inkscape:export-xdpi="96"
       inkscape:export-ydpi="96" />
    <path
       id="path19"
       style="display:inline;fill:none;stroke:#ffffff;stroke-width:3.052;stroke-dasharray:none"
       d="M 135.74586,164.34457 A 62.746784,61.315289 0 0 1 91.098994,182.57696 62.746784,61.315289 0 0 1 47.215919,165.08751" />
    <path
       id="path2-5"
       style="display:inline;fill:none;stroke:#ffffff;stroke-width:3.007;stroke-dasharray:none"
       d="M 130.46105,159.77308 A 55.786118,54.513424 0 0 1 90.974982,175.77816 55.786118,54.513424 0 0 1 51.783847,160.05971" />
    <path
       id="path20"
       style="display:inline;fill:none;stroke:#ffffff;stroke-width:3.007;stroke-dasharray:none"
       d="M 51.535052,82.711275 A 55.786118,54.513424 0 0 1 90.974982,66.751317 55.786118,54.513424 0 0 1 130.91353,83.204579" />
    <path
       id="path2-5-2"
       style="display:inline;fill:none;stroke:#ffffff;stroke-width:3.099;stroke-dasharray:none"
       d="M 125.78922,155.14426 A 49.609634,48.477852 0 0 1 90.841102,169.21537 49.609634,48.477852 0 0 1 56.352341,155.58406" />
    <path
       id="path23"
       style="display:inline;fill:none;stroke:#ffffff;stroke-width:3.099;stroke-dasharray:none"
       d="M 55.832328,87.448055 A 49.609634,48.477852 0 0 1 90.841102,73.318009 49.609634,48.477852 0 0 1 126.62833,88.222861" />
    <path
       d="m 67.856274,108.31931 v 36.23664 H 50.657341 V 98.048009 H 76.341082 L 91.476146,135.05021 106.15253,98.048009 h 25.91306 v 46.507941 h -17.19892 v -36.23664 l -14.79109,36.23664 H 82.876677 Z"
       id="text27"
       style="font-weight:600;font-size:96px;font-family:FreeSans;-inkscape-font-specification:'FreeSans Semi-Bold';white-space:pre;fill:#ffffff;stroke:#ffffff;stroke-width:0"
       aria-label="M" />
  </g>
</svg>
